<svg width="410" height="55" viewBox="0 0 410 55" fill="none" xmlns="http://www.w3.org/2000/svg">
<path d="M202.251 38.0005L207.975 37.9912C210.375 38.0005 211.569 37.6126 211.569 36.8506C211.569 36.1028 208.848 35.7158 203.408 35.721C200.04 35.7271 198.352 36.1926 198.352 37.1479C198.352 37.7094 199.653 38.0005 202.251 38.0005ZM173.546 41.6954C174.069 41.6954 174.733 41.9785 175.528 42.5248C176.322 43.0784 176.756 43.3465 176.837 43.3587C177.244 43.3587 177.501 42.951 177.626 42.1583C177.746 41.0149 177.824 40.4075 177.865 40.3336C178.107 39.8421 178.604 39.3513 179.362 38.849C180.117 38.3577 180.751 38.1147 181.274 38.1147C182.54 38.1073 183.637 38.4859 184.57 39.2155C185.507 39.9695 185.979 40.736 185.973 41.5302C185.973 42.0984 185.706 42.6323 185.149 43.1177C184.603 43.6161 183.991 43.8702 183.285 43.8702C182.318 43.8702 181.262 43.4509 180.131 42.6099C179.723 42.7658 179.518 42.9777 179.518 43.2352C179.518 44.1483 180.012 45.3042 181.014 46.718C182.004 48.1174 182.942 48.8469 183.842 48.876C183.757 48.3448 183.598 47.8 183.352 47.2272C183.117 46.6567 182.989 46.294 182.989 46.1382C182.989 45.1137 183.23 44.6106 183.711 44.6106C184.088 44.6106 184.472 44.9616 184.882 45.6874C185.409 46.6052 185.849 47.2272 186.223 47.5698C187.398 48.5957 189.024 49.1071 191.092 49.1071C192.438 49.1071 193.78 48.472 195.11 47.1987C196.458 45.9285 197.429 44.2306 198.04 42.1008C197.113 41.5686 196.171 41.0392 195.226 40.5011C194.591 40.0542 194.264 39.4804 194.264 38.7952C194.264 37.24 194.686 36.217 195.545 35.7158C195.993 35.5351 196.428 35.3292 196.878 35.1195C197.329 34.9123 197.555 34.4652 197.555 33.7825C197.549 32.6013 197.252 31.6016 196.647 30.762C196.031 29.9219 195.3 29.5017 194.444 29.5077C193.594 29.5077 192.826 29.8021 192.133 30.3988C191.438 30.98 191.092 31.6016 191.092 32.2404C191.092 32.5483 191.18 33.0201 191.34 33.6411C191.498 34.2664 191.586 34.7142 191.582 34.9731C191.582 35.5089 191.411 36.0168 191.068 36.4912C190.725 36.9606 190.385 37.1994 190.058 37.1994C189.457 37.1994 188.96 36.7347 188.603 35.8276C188.235 34.695 187.87 33.5569 187.501 32.4117C187.136 31.5829 186.763 30.762 186.399 29.9678C185.994 28.9433 185.79 28.0064 185.79 27.1714C185.79 25.2063 186.369 23.4406 187.52 21.8986C188.692 20.3686 190.078 19.5898 191.707 19.5898C195.2 19.5898 197.633 22.3155 199.016 27.7415C199.187 28.3911 199.304 29.4488 199.385 30.9347C199.467 32.0345 199.672 32.8156 199.991 33.271L200.417 33.6673C200.7 33.5929 200.839 33.249 200.839 32.642C200.839 25.84 199.187 20.4739 195.849 16.524C194.304 14.6969 192.372 13.2041 190.058 12.0491C187.745 10.8858 185.607 10.2987 183.662 10.2987C183.256 10.2987 182.706 10.3922 182.017 10.5623C181.32 10.7348 180.807 10.8223 180.487 10.8223C180.12 10.633 179.933 10.4449 179.942 10.2568C179.933 10.1334 180.618 9.31149 181.956 7.7396C179.674 5.04991 177.508 3.69967 175.427 3.69967C174.376 3.69967 173.404 3.86741 172.513 4.1813C171.61 4.50599 171.145 4.67252 171.094 4.67252C170.33 4.29392 169.944 3.73561 169.944 3.02275C169.944 1.19688 171.164 0.292316 173.602 0.292316C173.772 0.292316 174.588 0.582264 176.046 1.1849C176.779 1.46765 177.526 1.73122 178.296 1.99361C179.228 2.33865 180.021 2.71725 180.666 3.13418C181.448 3.62779 182.462 4.60902 183.711 6.09344C184.615 7.15854 185.449 7.68808 186.223 7.68808C186.459 7.68808 186.901 7.44368 187.531 6.94648C188.165 6.45646 188.615 6.20486 188.898 6.20007C190.841 6.20007 192.968 7.38497 195.231 9.7392C197.558 12.2132 199.416 15.3103 200.839 19.0193C201.454 20.7005 201.882 23.4668 202.122 27.3405C202.164 28.0302 202.194 28.7454 202.194 29.5017V30.3006C202.194 32.2043 202.471 33.3823 203.044 33.8372C203.322 33.0014 203.463 32.2404 203.467 31.5576C203.467 31.2183 203.373 30.3319 203.19 28.8882C203.01 27.4397 202.915 26.1648 202.915 25.0688V24.1571C202.915 21.9107 202.349 19.1897 201.209 15.9776C200.066 12.768 199.501 10.9133 199.501 10.4221C199.513 9.40255 199.702 8.38417 200.089 7.37419C200.469 6.37019 200.824 5.8658 201.149 5.8658C201.318 5.8658 201.57 5.97123 201.941 6.1797C202.308 6.38937 202.555 6.4936 202.673 6.4936C202.827 6.4936 202.933 6.39776 202.986 6.20007C202.527 4.87859 202.308 3.91293 202.308 3.3091C202.308 2.39137 202.578 1.61261 203.106 0.965641C203.628 0.311485 204.263 -7.62939e-06 204.998 -7.62939e-06C206.606 -7.62939e-06 207.43 1.19687 207.43 3.59064L207.425 4.4964C207.419 5.71006 207.631 6.31987 208.035 6.32586C208.123 6.32586 208.242 6.29472 208.401 6.2408C208.566 6.1821 208.683 6.14495 208.769 6.14495C209.175 6.14495 209.547 6.47683 209.888 7.12499C210.241 7.76357 210.411 8.52076 210.411 9.39895C210.411 11.262 209.556 14.2428 207.855 18.3412C206.266 22.1789 205.475 26.5481 205.475 31.4472C205.475 31.675 205.454 31.9456 205.417 32.2404C205.417 32.5483 205.417 32.7243 205.417 32.7557C205.417 33.4048 205.664 33.7979 206.15 33.9547C206.924 30.4985 207.717 27.0226 208.532 23.5229C209.346 20.3747 210.171 18.0156 211.032 16.4557C214.026 11.1458 216.783 8.48601 219.311 8.48601C219.843 8.4908 220.361 8.59504 220.87 8.80111C221.371 9.01796 221.614 9.1138 221.564 9.1138C222.138 9.1138 222.577 8.66214 222.908 7.74321C223.351 6.4936 223.596 5.85502 223.638 5.8047C225.303 3.68769 228.787 2.619 234.057 2.619C235.808 2.619 237.206 2.94009 238.267 3.59064C239.319 4.23402 239.855 5.03313 239.849 5.98201C239.849 6.3618 239.657 6.73921 239.269 7.12499C238.884 7.50238 238.526 7.68808 238.207 7.68808C238.119 7.68808 237.563 7.23281 236.535 6.31508C235.493 5.41772 234.34 4.95047 233.09 4.95047C231.339 4.95765 229.733 5.26197 228.267 5.8658C226.926 6.44927 226.265 7.03274 226.265 7.63538C227.6 9.08026 228.267 10.1166 228.267 10.7672C228.267 11.2955 228.048 11.5699 227.606 11.5771C227.312 11.5651 226.992 11.5447 226.622 11.5076C226.26 11.4716 226.016 11.4465 225.901 11.4417C225.086 11.4417 224.39 11.5771 223.823 11.7963C223.459 11.9808 223.1 12.1593 222.788 12.3055C222.26 12.3798 221.73 12.4421 221.208 12.4732C220.35 12.6338 219.481 12.9872 218.578 13.5659C215.652 15.4193 213.702 17.2583 212.73 19.077C209.596 25.0121 208.035 29.6454 208.035 32.9831C208.035 33.1427 208.242 33.3594 208.648 33.6673C211.092 25.0089 213.783 20.686 216.751 20.6813C218.131 20.686 219.303 21.3317 220.257 22.6459C221.217 23.9484 221.688 25.6617 221.688 27.7415C221.688 30.3628 221.41 32.5483 220.87 34.2973C220.325 36.0429 219.675 36.9166 218.943 36.9166C218.131 36.9166 217.567 36.4229 217.234 35.4382C217.973 34.2894 218.335 33.4755 218.335 32.9831C218.335 30.4418 217.484 29.1647 215.777 29.1647C214.273 29.1647 213.141 29.4848 212.37 30.1367C211.709 30.7067 210.958 31.9456 210.108 33.8372C211.943 34.3633 213.194 34.8438 213.885 35.2609C214.697 35.7579 215.107 36.3991 215.102 37.1994C215.102 37.8461 214.859 38.535 214.34 39.2777C213.832 40.0196 213.302 40.5011 212.73 40.736C212.155 40.9541 211.581 41.19 210.991 41.4367C210.405 41.6875 210.108 42.0824 210.108 42.6099C210.108 43.61 210.939 44.9224 212.612 46.6052C214.441 48.4553 216.104 49.3946 217.605 49.3946C219.638 49.3946 221.792 48.2709 224.063 46.0306C224.228 46.2243 224.302 46.5023 224.302 46.8833C224.311 47.6788 223.938 48.3308 223.21 48.8277C222.275 49.5059 221.747 49.9244 221.628 50.0703C221.827 50.1541 222.08 50.1939 222.358 50.1939L222.722 50.1878C224.306 50.1939 225.762 49.5429 227.078 48.247C228.403 46.9623 229.065 45.556 229.065 44.0345C229.065 43.7658 228.944 43.5132 228.696 43.2665C228.449 43.0269 228.229 42.8926 228.03 42.8926C227.867 42.8972 227.486 43.1116 226.896 43.5262C226.312 43.9362 225.901 44.1483 225.641 44.1483C223.775 44.1483 222.844 43.1851 222.844 41.2438C222.844 40.4075 222.993 39.7078 223.272 39.1365C223.552 38.5627 223.878 38.2861 224.247 38.2814C224.33 38.2861 224.44 38.3109 224.584 38.3614C224.729 38.4274 224.807 38.4498 224.854 38.4498C225.104 38.4498 225.516 38.3791 226.108 38.2215C226.705 38.074 227.139 38.0005 227.417 37.9912C228.557 37.9912 229.578 38.5795 230.5 39.7308C231.411 40.899 232.029 42.5177 232.348 44.6106C234.628 43.7658 236.293 43.3526 237.352 43.3587C238.407 43.3465 239.063 43.8272 239.299 44.7712L238.752 45.0599C237.98 44.5254 237.468 44.2306 237.233 44.1529C235.844 44.5291 234.628 45.1076 233.578 45.9192C232.961 46.3731 232.048 47.1794 230.83 48.3355C229.609 49.4975 228.636 50.3207 227.904 50.8107C226.286 51.9175 224.409 52.4674 222.299 52.4651C216.933 52.4651 213.221 50.9857 211.148 48.0205C210.777 47.4846 210.171 46.2749 209.316 44.3686C208.829 43.3105 208.236 42.7845 207.547 42.7929C207.018 42.7845 206.433 42.951 205.78 43.2951C206.07 44.6681 206.451 46.185 206.939 47.8538C207.391 49.1825 207.606 49.9575 207.606 50.1939C207.606 50.8284 207.212 51.7031 206.395 52.8138C205.576 53.9065 204.969 54.4602 204.562 54.4602C204.194 54.4602 203.55 53.8106 202.612 52.5226C201.675 51.2371 201.209 50.2463 201.209 49.5611C201.209 48.6878 201.503 47.6082 202.092 46.3179C202.688 45.0253 202.986 44.1913 202.986 43.8127C202.986 43.4953 202.816 43.1851 202.518 42.8434C202.219 42.4948 201.965 42.3305 201.764 42.3305C201.318 42.3305 200.697 42.8434 199.929 43.8702C197.737 46.791 195.892 48.7992 194.385 49.893C192.351 51.422 189.925 52.1824 187.068 52.1824C185.567 52.1824 183.925 51.816 182.133 51.0634C180.342 50.33 178.84 49.3946 177.626 48.2525C177.425 48.0612 177.036 47.5698 176.462 46.7718C176.02 46.0844 175.51 45.5321 174.943 45.1137C173.559 44.0593 172.545 43.5239 171.898 43.5262C171.57 43.5262 171.114 43.7565 170.523 44.2404C169.938 44.7112 169.627 44.9438 169.585 44.9438C169.179 44.9438 168.967 44.8156 168.967 44.5446C168.971 42.6529 170.499 41.6954 173.546 41.6954Z" fill="#61A967"/>
<path d="M408.1 27.9656C396.006 25.5611 384.381 29.9626 374.317 36.0013C367.707 39.9704 361.071 43.4509 353.197 44.655C344.882 45.9238 337.9 41.1062 335.022 34.1011C334.408 32.6082 329.084 32.3948 329.747 34.009C334.528 45.6505 347.598 48.6073 359.457 46.2341C375.495 43.0278 388.903 26.5672 406.312 30.0239C408.865 30.5317 412.14 28.766 408.1 27.9656ZM74.9793 34.1011C72.1015 41.1062 65.1155 45.9238 56.8044 44.655C48.9282 43.4509 42.2944 39.9704 35.6834 36.0013C25.6183 29.9626 13.9969 25.5611 1.90104 27.9656C-2.1413 28.766 1.13545 30.5317 3.68857 30.0239C21.0979 26.5672 34.5069 43.0278 50.5444 46.2341C62.4031 48.6073 75.4705 45.6505 80.2533 34.009C80.9158 32.3948 75.5915 32.6082 74.9793 34.1011ZM318.148 29.5685C317.73 28.7205 317.137 27.9236 316.425 27.1795C321.608 25.3898 327.472 24.9045 332.898 25.6102C333.212 25.6524 333.545 25.7084 333.886 25.7722C328.451 26.0258 323.169 27.4603 318.148 29.5685ZM312.953 32.0177C311.495 32.781 310.065 33.5882 308.663 34.4283C302.053 38.3936 295.418 41.8779 287.542 43.0793C283.174 43.7457 279.179 42.7212 275.946 40.5924C281.008 41.4249 286.652 40.7337 291.048 39.5534C298.738 37.4857 305.101 32.3616 312.223 28.9228C312.776 29.8751 313.055 30.9094 312.953 32.0177ZM307.327 24.9873C307.543 25.0303 307.767 25.0519 307.989 25.0641C308.482 25.35 308.953 25.6546 309.399 25.9743C302.274 28.8465 296.163 33.5737 289.08 36.5896C284.186 38.6708 277.253 39.6395 272.712 36.5105C283.846 30.7006 294.501 22.4414 307.327 24.9873ZM268.918 31.0554C273.29 28.5334 277.564 25.7731 282.276 23.9952C287.651 21.9644 293.855 21.4048 299.565 22.1503C299.878 22.191 300.208 22.2457 300.548 22.3108C291.559 22.7301 282.991 26.3661 275.33 30.9647C273.623 31.99 271.914 32.9784 270.183 33.9069C269.607 33.0253 269.186 32.0607 268.918 31.0554ZM254.21 39.6194C249.841 40.2844 245.848 39.26 242.615 37.1319C247.676 37.9636 253.32 37.2738 257.716 36.0912C260.096 35.4514 262.349 34.513 264.535 33.4263C264.589 33.5138 264.637 33.6027 264.692 33.6889C265.089 34.499 265.542 35.2464 266.021 35.9667C262.315 37.6519 258.445 38.9725 254.21 39.6194ZM340.66 28.4487C340.877 28.4917 341.098 28.5118 341.32 28.5249C345.178 30.762 347.883 34.1259 345.294 38.2224C344.788 39.0265 344.911 40.9049 346.857 41.6117C348.56 42.2313 350.536 40.3935 350.943 39.75C355.576 32.4238 346.152 26.9688 339.723 24.9176C331.465 22.2832 322.608 22.3263 314.211 24.3991C313.9 24.4757 313.596 24.568 313.29 24.6532C311.088 23.237 308.57 22.1512 306.391 21.4576C298.131 18.8219 289.271 18.864 280.877 20.9362C276.481 22.0221 272.565 23.9797 268.748 26.1265C269.123 24.1664 270.014 22.3118 271.4 20.8657C271.989 20.2525 272.395 18.3304 270.218 17.7412C268.585 17.299 266.328 18.7391 265.754 19.3381C262.9 22.3132 262.133 26.0042 262.917 29.4777C260.589 30.8003 258.229 32.0691 255.747 33.1259C250.502 35.3591 242.904 36.3176 238.43 32.3087C234.128 28.4542 234.254 21.3823 238.067 17.4043C238.655 16.7899 239.062 14.8694 236.885 14.2787C235.254 13.8366 232.992 15.2779 232.418 15.8782C228.367 20.1037 228.512 25.7778 231.353 30.2167C236.541 40.8043 249.056 43.4808 260.47 41.1975C263.11 40.67 265.675 39.7799 268.201 38.6838C274.396 45.0683 284.465 46.5261 293.803 44.6597C300.117 43.3971 306.025 40.0795 311.93 36.7318C312.182 37.3023 312.669 37.84 313.524 38.1503C315.227 38.7699 317.203 36.9321 317.612 36.2876C318.346 35.1242 318.723 34.009 318.82 32.9462C325.688 29.4141 332.761 26.8799 340.66 28.4487Z" fill="#61A967"/>
<path d="M154.255 39.6194C150.02 38.9725 146.149 37.6519 142.443 35.9666C142.923 35.2464 143.376 34.4976 143.773 33.6874C143.83 33.6013 143.876 33.5128 143.929 33.4262C146.117 34.512 148.37 35.4513 150.752 36.0911C155.148 37.2737 160.788 37.9636 165.849 37.1319C162.617 39.2599 158.625 40.2844 154.255 39.6194ZM119.385 36.5895C112.3 33.5737 106.189 28.8464 99.0656 25.9743C99.5113 25.6546 99.9821 25.3499 100.475 25.0641C100.699 25.0533 100.923 25.0303 101.141 24.9873C113.965 22.4414 124.621 30.7006 135.753 36.5105C131.214 39.6395 124.277 38.6707 119.385 36.5895ZM120.923 43.0793C113.047 41.8779 106.413 38.3936 99.8 34.4283C98.4006 33.5882 96.9701 32.7809 95.512 32.0185C95.4102 30.9103 95.6894 29.8765 96.2405 28.9241C103.364 32.3626 109.729 37.4857 117.417 39.5533C121.815 40.7337 127.457 41.4249 132.516 40.5923C129.284 42.7212 125.29 43.7457 120.923 43.0793ZM75.5676 25.6102C80.9937 24.9045 86.8571 25.3897 92.04 27.1794C91.3271 27.9235 90.7365 28.7205 90.316 29.5685C85.2948 27.4602 80.0149 26.0258 74.5792 25.7722C74.9206 25.7084 75.2537 25.6523 75.5676 25.6102ZM108.899 22.1502C114.61 21.4048 120.813 21.9644 126.19 23.9952C130.901 25.7731 135.175 28.5347 139.549 31.0568C139.279 32.0621 138.86 33.0252 138.284 33.9083C136.551 32.9793 134.84 31.99 133.133 30.9646C125.471 26.366 116.904 22.7287 107.916 22.3108C108.256 22.2457 108.587 22.191 108.899 22.1502ZM176.046 15.8781C175.472 15.2779 173.213 13.8366 171.58 14.2787C169.404 14.8694 169.81 16.7899 170.398 17.4043C174.211 21.3823 174.336 28.4542 170.034 32.3087C165.563 36.3176 157.961 35.3591 152.717 33.1259C150.236 32.069 147.874 30.8003 145.546 29.4777C146.329 26.0033 145.563 22.3132 142.712 19.3381C142.139 18.739 139.879 17.2989 138.248 17.7412C136.068 18.3304 136.477 20.2525 137.064 20.8656C138.449 22.3117 139.343 24.1664 139.719 26.1264C135.901 23.9797 131.984 22.022 127.586 20.9362C119.192 18.864 110.334 18.8218 102.073 21.4576C99.8971 22.1512 97.3763 23.237 95.1754 24.6531C94.8687 24.5665 94.5668 24.4757 94.2541 24.399C85.8603 22.3262 77.0005 22.2832 68.7397 24.9176C62.312 26.9688 52.8891 32.4238 57.522 39.7499C57.9294 40.3934 59.9039 42.2313 61.6099 41.6116C63.5532 40.9049 63.6802 39.0264 63.171 38.2224C60.5807 34.1273 63.2872 30.7619 67.145 28.5249C67.3679 28.5118 67.5884 28.4917 67.8076 28.4487C75.703 26.8799 82.7765 29.4141 89.6451 32.9462C89.7397 34.009 90.1207 35.1241 90.8551 36.2876C91.2649 36.9321 93.2381 38.7699 94.943 38.1503C95.7948 37.84 96.2825 37.3023 96.5364 36.7317C102.441 40.0794 108.347 43.397 114.66 44.6597C124 46.5261 134.069 45.0682 140.264 38.6825C142.791 39.7799 145.355 40.67 147.995 41.1975C159.407 43.4808 171.917 40.8052 177.108 30.2275C179.952 25.7862 180.099 20.1074 176.046 15.8781Z" fill="#61A967"/>
</svg>
